<svg xmlns="http://www.w3.org/2000/svg" viewBox="0 14.449999809265137 104.05000305175781 41.20000076293945" data-asc="0.92" width="104.05000305175781" height="41.20000076293945"><defs/><g fill="#ffffff"><g transform="translate(0, 0)"><path d="M4.55 46.60L4.55 42.10L0 42.10L0 28.05L4.55 28.05L4.55 23.50L18.65 23.50L18.65 28.05L23.25 28.05L23.25 33L18.15 33L18.15 28.50L5.05 28.50L5.05 41.60L18.15 41.60L18.15 37.05L23.25 37.05L23.25 42.10L18.65 42.10L18.65 46.60L4.55 46.60ZM29.30 46.60L29.30 23.50L34.35 23.50L34.35 46.60L29.30 46.60M29.30 19.50L29.30 14.45L34.35 14.45L34.35 19.50L29.30 19.50ZM40.40 46.60L40.40 14.45L45.45 14.45L45.45 46.60L40.40 46.60ZM51.50 55.40L51.50 28.05L56.05 28.05L56.05 23.50L70.15 23.50L70.15 28.05L74.75 28.05L74.75 42.10L70.15 42.10L70.15 46.60L56.55 46.60L56.55 55.40L51.50 55.40M56.55 41.60L69.65 41.60L69.65 28.50L56.55 28.50L56.55 41.60ZM85.35 55.65L85.35 51.15L80.80 51.15L80.80 46.15L85.85 46.15L85.85 50.65L99.00 50.65L99.00 42.10L85.35 42.10L85.35 37.55L80.80 37.55L80.80 23.50L85.85 23.50L85.85 37.05L99.00 37.05L99.00 23.50L104.05 23.50L104.05 51.15L99.50 51.15L99.50 55.65L85.35 55.65Z"/></g></g></svg>